<mxfile host="app.diagrams.net" agent="Mozilla/5.0 (Windows NT 10.0; Win64; x64) AppleWebKit/537.36 (KHTML, like Gecko) Chrome/136.0.0.0 Safari/537.36" version="26.2.9">
  <diagram name="Page-1" id="Le8fGD_fgxGEGW8ZsPNQ">
    <mxGraphModel dx="874" dy="439" grid="1" gridSize="10" guides="1" tooltips="1" connect="1" arrows="1" fold="1" page="1" pageScale="1" pageWidth="850" pageHeight="1100" math="0" shadow="0">
      <root>
        <mxCell id="0" />
        <mxCell id="1" parent="0" />
        <mxCell id="FM9aV0_leNcXUe7Dc3Jj-1" value="&lt;div&gt;Windows OS&lt;span style=&quot;background-color: transparent; color: light-dark(rgb(0, 0, 0), rgb(255, 255, 255));&quot;&gt;&amp;nbsp;(Platform &amp;amp; Environment)&lt;/span&gt;&lt;/div&gt;" style="rounded=0;whiteSpace=wrap;html=1;" vertex="1" parent="1">
          <mxGeometry x="330" y="40" width="190" height="90" as="geometry" />
        </mxCell>
        <mxCell id="FM9aV0_leNcXUe7Dc3Jj-2" value="" style="endArrow=classic;html=1;rounded=0;exitX=0.5;exitY=1;exitDx=0;exitDy=0;entryX=0.5;entryY=0;entryDx=0;entryDy=0;" edge="1" parent="1" source="FM9aV0_leNcXUe7Dc3Jj-1" target="FM9aV0_leNcXUe7Dc3Jj-3">
          <mxGeometry width="50" height="50" relative="1" as="geometry">
            <mxPoint x="400" y="260" as="sourcePoint" />
            <mxPoint x="205" y="240" as="targetPoint" />
          </mxGeometry>
        </mxCell>
        <mxCell id="FM9aV0_leNcXUe7Dc3Jj-3" value="&lt;div&gt;Student Management App&lt;span style=&quot;background-color: transparent; color: light-dark(rgb(0, 0, 0), rgb(255, 255, 255));&quot;&gt;&amp;nbsp;(Windows Forms - C#)&lt;/span&gt;&lt;/div&gt;" style="rounded=0;whiteSpace=wrap;html=1;" vertex="1" parent="1">
          <mxGeometry x="330" y="210" width="190" height="90" as="geometry" />
        </mxCell>
        <mxCell id="FM9aV0_leNcXUe7Dc3Jj-4" value="" style="endArrow=none;html=1;rounded=0;entryX=0.468;entryY=1.022;entryDx=0;entryDy=0;entryPerimeter=0;" edge="1" parent="1" target="FM9aV0_leNcXUe7Dc3Jj-3">
          <mxGeometry width="50" height="50" relative="1" as="geometry">
            <mxPoint x="419" y="400" as="sourcePoint" />
            <mxPoint x="450" y="460" as="targetPoint" />
          </mxGeometry>
        </mxCell>
        <mxCell id="FM9aV0_leNcXUe7Dc3Jj-5" value="" style="endArrow=classic;html=1;rounded=0;entryX=0.5;entryY=0;entryDx=0;entryDy=0;" edge="1" parent="1" target="FM9aV0_leNcXUe7Dc3Jj-6">
          <mxGeometry width="50" height="50" relative="1" as="geometry">
            <mxPoint x="420" y="400" as="sourcePoint" />
            <mxPoint x="200" y="480" as="targetPoint" />
          </mxGeometry>
        </mxCell>
        <mxCell id="FM9aV0_leNcXUe7Dc3Jj-6" value="UI Layer&lt;br&gt;(Forms, Buttons, Text Boxes, Grids)" style="rounded=0;whiteSpace=wrap;html=1;" vertex="1" parent="1">
          <mxGeometry x="100" y="500" width="130" height="60" as="geometry" />
        </mxCell>
        <mxCell id="FM9aV0_leNcXUe7Dc3Jj-7" value="" style="endArrow=classic;html=1;rounded=0;entryX=0.5;entryY=0;entryDx=0;entryDy=0;" edge="1" parent="1" target="FM9aV0_leNcXUe7Dc3Jj-8">
          <mxGeometry width="50" height="50" relative="1" as="geometry">
            <mxPoint x="420" y="400" as="sourcePoint" />
            <mxPoint x="430" y="480" as="targetPoint" />
          </mxGeometry>
        </mxCell>
        <mxCell id="FM9aV0_leNcXUe7Dc3Jj-8" value="Business Logic&amp;nbsp;Layer (BLL)&amp;nbsp;(Validation,&amp;nbsp;&lt;div&gt;Processing Logic)&lt;/div&gt;" style="rounded=0;whiteSpace=wrap;html=1;" vertex="1" parent="1">
          <mxGeometry x="340" y="500" width="150" height="60" as="geometry" />
        </mxCell>
        <mxCell id="FM9aV0_leNcXUe7Dc3Jj-9" value="Data Access Layer,&lt;div&gt;(DAL),&amp;nbsp;(SQL Queries, Connection Strings)&lt;/div&gt;" style="rounded=0;whiteSpace=wrap;html=1;" vertex="1" parent="1">
          <mxGeometry x="560" y="500" width="150" height="60" as="geometry" />
        </mxCell>
        <mxCell id="FM9aV0_leNcXUe7Dc3Jj-10" value="" style="endArrow=classic;html=1;rounded=0;entryX=0.5;entryY=0;entryDx=0;entryDy=0;" edge="1" parent="1" target="FM9aV0_leNcXUe7Dc3Jj-9">
          <mxGeometry width="50" height="50" relative="1" as="geometry">
            <mxPoint x="420" y="400" as="sourcePoint" />
            <mxPoint x="450" y="460" as="targetPoint" />
          </mxGeometry>
        </mxCell>
        <mxCell id="FM9aV0_leNcXUe7Dc3Jj-11" value="&lt;div&gt;Database (Local)&amp;nbsp;&lt;/div&gt;&lt;div&gt;&lt;span style=&quot;background-color: transparent; color: light-dark(rgb(0, 0, 0), rgb(255, 255, 255));&quot;&gt;(e.g., SQL Server /&amp;nbsp;&lt;/span&gt;&lt;span style=&quot;background-color: transparent; color: light-dark(rgb(0, 0, 0), rgb(255, 255, 255));&quot;&gt;.mdf File / SQLite)&lt;/span&gt;&lt;/div&gt;" style="rounded=0;whiteSpace=wrap;html=1;" vertex="1" parent="1">
          <mxGeometry x="350" y="660" width="140" height="70" as="geometry" />
        </mxCell>
        <mxCell id="FM9aV0_leNcXUe7Dc3Jj-12" value="" style="endArrow=classic;html=1;rounded=0;exitX=0.5;exitY=1;exitDx=0;exitDy=0;entryX=0;entryY=0.5;entryDx=0;entryDy=0;" edge="1" parent="1" source="FM9aV0_leNcXUe7Dc3Jj-6" target="FM9aV0_leNcXUe7Dc3Jj-11">
          <mxGeometry width="50" height="50" relative="1" as="geometry">
            <mxPoint x="400" y="740" as="sourcePoint" />
            <mxPoint x="450" y="690" as="targetPoint" />
          </mxGeometry>
        </mxCell>
        <mxCell id="FM9aV0_leNcXUe7Dc3Jj-13" value="" style="endArrow=classic;html=1;rounded=0;exitX=0.5;exitY=1;exitDx=0;exitDy=0;entryX=0.5;entryY=0;entryDx=0;entryDy=0;" edge="1" parent="1" source="FM9aV0_leNcXUe7Dc3Jj-8" target="FM9aV0_leNcXUe7Dc3Jj-11">
          <mxGeometry width="50" height="50" relative="1" as="geometry">
            <mxPoint x="400" y="740" as="sourcePoint" />
            <mxPoint x="450" y="690" as="targetPoint" />
          </mxGeometry>
        </mxCell>
        <mxCell id="FM9aV0_leNcXUe7Dc3Jj-14" value="" style="endArrow=classic;html=1;rounded=0;exitX=0.5;exitY=1;exitDx=0;exitDy=0;entryX=1;entryY=0.5;entryDx=0;entryDy=0;" edge="1" parent="1" source="FM9aV0_leNcXUe7Dc3Jj-9" target="FM9aV0_leNcXUe7Dc3Jj-11">
          <mxGeometry width="50" height="50" relative="1" as="geometry">
            <mxPoint x="400" y="740" as="sourcePoint" />
            <mxPoint x="450" y="690" as="targetPoint" />
          </mxGeometry>
        </mxCell>
      </root>
    </mxGraphModel>
  </diagram>
</mxfile>
